<svg version="1.1" id="Layer_1" xmlns="http://www.w3.org/2000/svg" xmlns:xlink="http://www.w3.org/1999/xlink" x="0px" y="0px"
	 width="100%" viewBox="0 0 540 462" enable-background="new 0 0 540 462" xml:space="preserve">
<path fill="#000000" opacity="1.000000" stroke="none" 
	d="
M1.000000,227.000000 
	C1.000000,152.685074 1.026710,78.870110 0.912259,5.055362 
	C0.907140,1.753791 1.405358,0.896466 4.942845,0.898767 
	C182.231873,1.014083 359.520996,1.016116 536.810059,0.891103 
	C540.578125,0.888446 541.085938,1.863187 541.083740,5.308073 
	C540.986694,156.436981 540.986511,307.565979 541.084412,458.694885 
	C541.086670,462.147766 540.567017,463.110931 536.807129,463.108307 
	C359.684692,462.984009 182.562180,462.984283 5.439756,463.103088 
	C1.554397,463.105713 0.905497,462.083923 0.911057,458.441803 
	C1.028572,381.461304 1.000000,304.480652 1.000000,227.000000 
z"/>
<path fill="#1B5A26" opacity="1.000000" stroke="none" 
	d="
M364.781006,358.811523 
	C336.650024,392.314911 303.208282,418.544098 264.564270,438.233704 
	C260.983612,440.058105 258.148529,439.066956 255.257751,437.168121 
	C240.624771,427.556396 226.674286,417.032501 213.505432,405.497528 
	C181.781998,377.710144 155.253082,345.677704 134.606522,308.832458 
	C116.411148,276.361481 103.156715,241.964310 94.263481,205.860229 
	C85.146873,168.849319 80.215157,131.278961 78.976494,93.181625 
	C78.646164,83.022003 78.323563,72.873878 78.335373,62.708946 
	C78.340607,58.206345 80.022911,56.418350 84.786293,55.978424 
	C111.982765,53.466652 139.132690,50.449474 166.413956,48.906410 
	C180.214401,48.125843 194.004135,47.115417 207.812012,46.514687 
	C245.281235,44.884533 282.779968,44.531635 320.260315,45.580372 
	C364.057220,46.805855 407.776764,49.520496 451.279327,55.016102 
	C457.425751,55.792564 458.793274,57.209824 458.560944,63.392914 
	C456.489197,118.523521 449.674164,172.935379 433.854401,225.988068 
	C422.738983,263.264374 407.113129,298.454865 385.614471,330.938599 
	C379.272369,340.521271 372.485443,349.794922 364.781006,358.811523 
z"/>
<path fill="#020302" opacity="1.000000" stroke="none" 
	d="
M436.188965,188.102875 
	C427.828308,224.706848 416.309998,259.775208 399.317657,292.880890 
	C368.849304,352.241577 324.840607,398.349762 265.409241,429.339325 
	C261.878021,431.180664 259.283417,431.149139 255.896484,428.833771 
	C185.643402,380.806061 137.075974,316.518372 110.499931,235.631882 
	C101.686363,208.806992 95.611290,181.362869 91.399651,153.473877 
	C90.416725,146.965027 91.049751,146.111847 97.679703,146.561264 
	C130.069305,148.756836 161.920868,145.722610 193.130737,136.671432 
	C218.900345,129.197952 243.117233,118.216225 265.595551,103.571587 
	C269.551270,100.994408 271.901947,101.227364 275.454956,104.312576 
	C297.935669,123.833290 324.615509,134.520660 353.418152,140.572372 
	C380.837555,146.333435 408.566040,147.497940 436.466095,146.346436 
	C443.737244,146.046326 444.128662,146.504959 442.774292,153.832397 
	C440.685516,165.133530 438.440704,176.405838 436.188965,188.102875 
z"/>
<path fill="#010101" opacity="1.000000" stroke="none" 
	d="
M86.850586,106.829842 
	C86.464493,93.865929 86.151337,81.379044 85.690811,68.897583 
	C85.536934,64.727180 87.195816,63.171921 91.441071,62.717812 
	C137.658478,57.774017 184.008041,54.482052 230.445648,53.145893 
	C271.733002,51.957932 313.050323,52.071991 354.342926,54.345112 
	C382.287994,55.883465 410.175415,57.951797 438.010284,60.809727 
	C439.665985,60.979725 441.322540,61.152931 442.970734,61.381863 
	C451.454987,62.560303 451.540100,62.572075 451.007111,71.311928 
	C449.790833,91.256958 448.338226,111.182899 446.087311,131.045639 
	C445.668976,134.737213 444.271240,136.969727 440.302277,137.108932 
	C400.619354,138.500626 361.292633,136.982864 323.655457,122.351593 
	C306.431854,115.656006 290.603546,106.652229 277.320038,93.536804 
	C272.525970,88.803391 270.935547,88.882561 265.667511,92.486954 
	C230.212433,116.745514 191.120605,131.309067 148.458786,136.265411 
	C131.043594,138.288681 113.595169,138.633926 96.094139,137.321396 
	C91.314148,136.962906 88.842842,135.438644 88.672028,130.205597 
	C88.422523,122.561882 87.501030,114.940109 86.850586,106.829842 
z"/>
<path fill="#1B5E27" opacity="1.000000" stroke="none" 
	d="
M205.822922,338.141846 
	C179.505768,304.242523 158.713486,267.905640 148.456787,226.182587 
	C144.624786,210.594467 142.671631,194.747803 142.212952,178.717346 
	C142.043488,172.794495 142.569794,172.303894 148.321381,172.600113 
	C188.624557,174.675827 226.304031,165.137222 261.928192,146.761169 
	C266.074219,144.622498 269.361053,144.555603 273.497223,146.853699 
	C302.709290,163.084274 334.209229,171.263504 367.493774,172.884094 
	C373.979156,173.199844 380.471527,173.684769 386.955383,173.612610 
	C391.581787,173.561127 393.032715,175.211182 392.734436,179.823257 
	C391.066803,205.608490 384.109711,229.977692 373.366089,253.332108 
	C357.573547,287.661987 335.820709,318.055878 311.255676,346.546204 
	C297.222290,362.822052 282.506653,378.456421 266.826019,393.173676 
	C261.752594,397.935425 261.623383,398.068359 256.457245,393.115967 
	C238.524063,375.924591 221.501373,357.891907 205.822922,338.141846 
z"/>
<path fill="#1B5425" opacity="1.000000" stroke="none" 
	d="
M396.409546,218.919601 
	C392.431702,214.852234 392.970276,213.096176 398.309540,211.651917 
	C399.428894,211.349152 400.608185,211.233215 401.691101,210.841232 
	C402.559052,210.527039 403.876862,210.230469 403.510803,208.953033 
	C403.350311,208.392914 402.284790,208.045258 401.582916,207.696259 
	C399.711884,206.765854 395.777100,207.401413 396.694061,204.266235 
	C397.673462,200.917755 400.995453,203.286957 403.193604,203.676132 
	C406.449951,204.252670 409.630432,205.280273 412.822021,206.190125 
	C414.239288,206.594177 415.868195,206.944077 415.981171,208.859039 
	C416.102356,210.912766 414.652618,211.737686 412.990387,212.301712 
	C412.520477,212.461136 411.987946,212.470657 411.550354,212.684448 
	C409.847443,213.516525 406.777649,212.926620 406.612976,215.098801 
	C406.464355,217.059616 409.404602,216.793747 410.981354,217.492798 
	C412.298676,218.076843 413.433685,218.764709 413.037598,220.405579 
	C412.620087,222.135483 411.223816,222.021606 409.832642,221.862534 
	C405.366821,221.351883 401.366028,218.850906 396.409546,218.919601 
z"/>
<path fill="#1B5425" opacity="1.000000" stroke="none" 
	d="
M206.015610,353.373566 
	C211.451080,354.480042 211.882950,355.426208 209.812042,360.620453 
	C208.922195,362.852325 207.113037,364.809662 207.466019,367.818329 
	C210.175415,367.578552 211.283463,365.191681 213.169235,364.086029 
	C214.304520,363.420410 215.515869,362.436981 216.729248,363.793549 
	C217.967087,365.177521 216.993942,366.283264 215.921432,367.150116 
	C212.174179,370.178864 208.398972,373.173767 204.597046,376.133545 
	C203.481522,377.001984 202.181259,377.402435 200.953812,376.333588 
	C199.800674,375.329407 199.736908,374.079132 200.356873,372.708130 
	C201.178650,370.890869 201.975952,369.059357 202.690903,367.198273 
	C203.085831,366.170258 204.150040,364.957916 203.119293,363.997467 
	C201.943802,362.902100 201.100006,364.398590 200.169891,364.937836 
	C200.027863,365.020142 199.924820,365.173340 199.779907,365.246552 
	C198.038574,366.126221 196.296143,369.132751 194.381851,366.578125 
	C192.751282,364.402100 195.821533,363.329865 197.070251,362.024445 
	C199.894913,359.071533 204.267197,357.783783 206.015610,353.373566 
z"/>
<path fill="#1B5425" opacity="1.000000" stroke="none" 
	d="
M402.388611,261.059631 
	C395.795685,262.774902 389.812317,260.439728 384.698547,257.612488 
	C380.973419,255.552963 384.189453,250.962967 385.415802,247.777939 
	C386.620422,244.649200 389.394958,244.060562 392.476288,245.251770 
	C393.994904,245.838837 395.243622,246.913605 397.052124,246.999023 
	C403.791046,247.317368 405.499359,249.574753 404.064117,256.048523 
	C403.707916,257.655121 403.094666,259.204742 402.388611,261.059631 
z"/>
<path fill="#1B5425" opacity="1.000000" stroke="none" 
	d="
M395.994019,218.974243 
	C395.716614,221.259567 395.464325,223.559357 395.177124,225.854782 
	C395.012970,227.166565 394.537903,228.774277 396.132446,229.315598 
	C398.155975,230.002502 398.475555,228.084976 399.071167,226.777496 
	C399.207886,226.477341 399.275879,226.146637 399.391571,225.835968 
	C399.831116,224.655655 400.563049,223.693283 401.930511,223.915939 
	C403.711548,224.205902 403.555573,225.659668 403.568634,227.028107 
	C403.582916,228.521713 401.934418,230.791687 404.257294,231.312485 
	C406.720062,231.864685 406.533722,229.033661 407.229675,227.522598 
	C407.865601,226.141876 408.255981,224.446335 410.275848,225.158005 
	C411.926636,225.739624 411.600403,227.327103 411.328918,228.595627 
	C410.913361,230.537735 410.225189,232.420181 409.772186,234.355911 
	C409.098816,237.233444 407.298492,238.102859 404.588715,237.417282 
	C401.535095,236.644714 398.435883,235.988022 395.468842,234.957535 
	C393.069885,234.124344 388.705475,234.804123 389.432312,230.715851 
	C390.175201,226.537445 389.360260,220.973541 395.714050,219.187408 
	C396.030640,219.005386 396.004547,218.986877 395.994019,218.974243 
z"/>
<path fill="#1B5425" opacity="1.000000" stroke="none" 
	d="
M161.148163,322.315277 
	C165.808670,321.490601 168.324890,317.288177 172.045135,314.971985 
	C173.773499,313.895905 175.345306,311.446503 177.636200,313.219299 
	C179.822998,314.911591 178.279434,317.143707 177.594452,319.144043 
	C176.869919,321.260010 175.080612,323.048431 175.528870,325.869263 
	C178.100189,325.619965 179.600861,323.734985 181.445221,322.535858 
	C182.641617,321.757996 183.883057,321.126648 184.934601,322.534515 
	C185.803711,323.698090 185.107376,324.832214 184.157257,325.570801 
	C180.232788,328.621521 176.256027,331.605438 172.277451,334.585815 
	C171.430527,335.220276 170.460495,335.437195 169.521271,334.738190 
	C168.286011,333.818817 168.141068,332.551941 168.509506,331.168701 
	C169.304016,328.186127 171.243958,325.554382 171.409988,322.283173 
	C168.782288,321.499908 167.766617,323.688690 166.265701,324.744934 
	C163.317505,326.819702 161.699356,326.228455 161.148163,322.315277 
z"/>
<path fill="#1B5425" opacity="1.000000" stroke="none" 
	d="
M120.009781,211.023529 
	C120.917007,210.284424 121.580070,209.781570 122.226601,209.258301 
	C122.991859,208.638947 124.033356,208.042252 123.673340,206.894745 
	C123.290771,205.675369 122.067810,205.995728 121.111816,205.972961 
	C120.616058,205.961151 120.117249,206.051331 119.620697,206.103775 
	C118.017715,206.273071 115.800667,207.028870 115.579910,204.693604 
	C115.374168,202.517242 117.796944,202.578522 119.316292,202.288559 
	C123.074539,201.571304 126.865372,201.018524 130.651764,200.458145 
	C132.146912,200.236877 133.795990,200.037766 134.477936,201.866180 
	C135.097626,203.527649 134.165604,204.728394 132.903030,205.716553 
	C131.199554,207.049820 129.478851,208.362808 127.815247,209.744354 
	C127.196449,210.258209 126.429771,210.892807 126.828613,211.831955 
	C127.255455,212.837051 128.206787,212.339554 128.991669,212.381348 
	C131.414307,212.510361 135.530319,209.917191 135.854218,213.217896 
	C136.225266,216.998993 131.303085,215.582275 128.744568,216.477936 
	C126.892487,217.126297 124.826004,217.227539 122.840179,217.409698 
	C120.941231,217.583893 118.608124,218.709671 117.331039,216.561279 
	C115.796822,213.980347 118.361107,212.770798 120.009781,211.023529 
z"/>
<path fill="#1B5425" opacity="1.000000" stroke="none" 
	d="
M187.515167,348.115173 
	C190.811844,346.601379 192.974442,343.958160 195.744400,342.172974 
	C197.025482,341.347351 198.609497,340.028778 199.703857,341.341736 
	C202.427536,344.609467 206.742340,347.105042 205.983948,352.708374 
	C205.955063,353.038177 205.983154,353.015747 205.995728,353.004395 
	C203.406830,352.425568 201.672440,350.730621 200.155975,348.660370 
	C199.348206,347.557617 198.193756,346.585236 196.813293,347.726105 
	C195.662720,348.677032 196.475296,349.783295 196.943176,350.865997 
	C197.594879,352.374115 199.953842,353.963745 197.766296,355.571686 
	C195.641632,357.133453 194.749619,354.409943 193.385254,353.460052 
	C192.432953,352.797058 191.475479,351.727814 190.328461,352.666168 
	C188.943039,353.799591 189.993484,355.024994 190.583633,356.203094 
	C191.513107,358.058502 195.183350,359.864471 192.385178,361.887756 
	C189.431137,364.023682 188.704697,359.862640 187.057297,358.370972 
	C183.244064,354.918213 182.680176,351.570892 187.515167,348.115173 
z"/>
<path fill="#1B5425" opacity="1.000000" stroke="none" 
	d="
M272.699860,402.702637 
	C270.770081,403.016113 268.532928,402.584381 268.503815,404.924988 
	C268.473419,407.370605 270.759583,406.817017 272.284515,407.051056 
	C273.616974,407.255554 275.181732,407.253784 275.178436,409.059387 
	C275.175476,410.682129 273.750610,411.077820 272.422241,411.447784 
	C271.084381,411.820374 268.789032,411.384583 268.921631,413.366028 
	C269.077759,415.699158 271.483337,414.771088 272.974609,415.060547 
	C274.514160,415.359406 276.755188,414.784058 276.769196,417.209198 
	C276.782623,419.527954 274.649689,419.348877 273.034668,419.500244 
	C264.491302,420.301086 263.469513,419.375519 263.444763,410.886200 
	C263.441376,409.722504 263.441498,408.558777 263.444611,407.395081 
	C263.468689,398.333191 264.252350,397.595337 273.107727,398.535522 
	C274.496460,398.682953 276.571381,398.292938 276.707703,400.307526 
	C276.868896,402.688507 274.669952,402.433868 272.699860,402.702637 
z"/>
<path fill="#1B5425" opacity="1.000000" stroke="none" 
	d="
M245.943634,414.078003 
	C245.920654,410.014282 245.951675,406.352020 245.796600,402.697693 
	C245.668091,399.669586 247.127060,398.276581 249.979996,398.531830 
	C253.536926,398.850037 257.848969,398.215668 259.572601,402.354218 
	C261.401337,406.745056 261.767761,411.687408 259.231720,415.841858 
	C256.868835,419.712708 252.315491,419.391144 248.360107,419.107269 
	C245.716904,418.917572 245.671494,416.600220 245.943634,414.078003 
z"/>
<path fill="#1B5425" opacity="1.000000" stroke="none" 
	d="
M325.639221,366.977692 
	C325.698242,371.106598 324.238159,372.734528 320.495392,369.543549 
	C319.099701,368.353638 317.656433,367.671539 316.143707,369.319153 
	C314.484009,371.126862 314.672821,372.824463 316.406097,374.545319 
	C317.529572,375.660706 319.358276,376.960968 317.618622,378.678497 
	C315.920593,380.354919 314.594757,378.531982 313.409180,377.492157 
	C310.284119,374.751129 307.185272,371.976288 304.172211,369.113617 
	C303.145813,368.138489 301.690430,366.936340 303.269562,365.342926 
	C304.512115,364.089111 305.704407,364.961792 306.795197,365.813812 
	C308.466278,367.119171 310.119202,369.165558 312.352844,366.928864 
	C314.765320,364.513000 312.704315,362.764923 311.138855,361.022858 
	C310.223480,360.004181 309.250641,358.844513 310.317963,357.514160 
	C311.667542,355.831909 312.948517,357.121796 314.218262,357.891144 
	C318.356659,360.398926 320.713715,365.070618 325.639221,366.977692 
z"/>
<path fill="#1B5425" opacity="1.000000" stroke="none" 
	d="
M149.324097,261.000671 
	C151.154892,263.871124 152.745041,266.573578 154.171799,269.359741 
	C154.794037,270.574860 155.060196,272.026855 153.353943,272.712585 
	C151.953705,273.275330 151.250778,272.185638 150.594345,271.207001 
	C150.317932,270.794922 150.130936,270.321655 149.844849,269.917542 
	C148.854599,268.519012 148.237640,265.959290 145.959152,267.141327 
	C144.029266,268.142548 145.522537,270.082458 145.988632,271.589630 
	C146.381805,272.860962 147.062103,274.259064 145.351974,275.019592 
	C143.739349,275.736755 143.018677,274.412323 142.196991,273.346924 
	C141.251068,272.120361 140.649567,269.647705 138.686005,270.631744 
	C136.239883,271.857605 138.450958,273.766846 138.861084,275.347046 
	C139.253937,276.860657 140.832306,278.752869 138.737579,279.702393 
	C136.345337,280.786743 135.818253,278.304138 135.073257,276.729279 
	C131.017075,268.154755 129.913315,269.464203 138.979019,264.840393 
	C142.181412,263.207092 145.219727,261.043060 149.324097,261.000671 
z"/>
<path fill="#1B5425" opacity="1.000000" stroke="none" 
	d="
M378.490051,284.064117 
	C380.533997,285.954285 378.932831,287.589142 378.551056,289.244873 
	C378.276703,290.434784 377.993073,291.622620 379.321198,292.279236 
	C380.728760,292.975128 381.298187,291.854492 382.037750,290.899994 
	C383.384674,289.161713 383.393280,284.708191 386.472412,286.413147 
	C389.396118,288.032013 386.130493,290.988281 385.444733,293.322327 
	C384.107544,297.873627 381.381805,298.888184 377.237823,296.574524 
	C375.218262,295.446930 372.986206,294.697998 370.974915,293.557892 
	C368.902557,292.383148 365.430542,292.096985 365.475159,289.209473 
	C365.531525,285.563568 367.840698,282.414398 369.839935,279.372955 
	C370.340332,278.611694 371.375641,278.583771 372.066254,279.150818 
	C372.491943,279.500305 372.763672,280.248291 372.781006,280.827057 
	C372.799744,281.452789 372.435913,282.088074 372.249207,282.722198 
	C371.685608,284.636597 369.512238,287.062195 372.215149,288.342743 
	C374.797729,289.566345 374.865601,286.151123 376.081451,284.827454 
	C376.675476,284.180725 377.289886,283.714813 378.490051,284.064117 
z"/>
<path fill="#1B5225" opacity="1.000000" stroke="none" 
	d="
M187.572632,347.365204 
	C187.673218,347.853699 187.728592,347.766144 187.754517,347.758728 
	C182.397461,348.371368 177.428665,348.044708 174.904251,342.123444 
	C174.194443,340.458588 172.855026,338.327484 174.738708,337.162079 
	C177.181625,335.650604 177.459808,338.449402 178.381577,339.871521 
	C179.156067,341.066406 179.881607,343.031830 181.600555,342.414185 
	C183.917877,341.581573 182.484177,339.663757 182.101944,338.185120 
	C180.832626,333.274597 182.254227,329.993835 186.131622,328.999054 
	C189.493332,328.136566 193.719879,331.328369 194.866241,335.564667 
	C195.231079,336.912811 195.568542,338.312439 193.899841,338.938843 
	C192.597000,339.427887 191.722321,338.622711 191.125534,337.461182 
	C190.747620,336.725647 190.329910,335.990570 189.810318,335.352814 
	C189.152008,334.544830 188.271469,333.978668 187.203827,334.522858 
	C186.088379,335.091400 186.099197,336.175751 186.538681,337.107147 
	C188.030258,340.268219 187.969116,343.543884 187.572632,347.365204 
z"/>
<path fill="#1B5425" opacity="1.000000" stroke="none" 
	d="
M345.894165,319.437927 
	C349.404938,322.036102 346.074341,323.299286 345.058655,324.987183 
	C344.257782,326.318146 342.246796,327.509399 344.177856,329.165436 
	C345.750122,330.513763 346.838196,328.801849 347.982880,327.949646 
	C349.233124,327.018829 350.313690,324.826874 352.109161,326.234680 
	C354.313354,327.963013 352.007599,329.408539 351.157684,330.840851 
	C350.468323,332.002625 349.466614,333.257141 350.874481,334.350922 
	C352.259033,335.426636 353.307068,334.215546 354.237305,333.243042 
	C354.811493,332.642792 355.340942,331.997162 355.941010,331.424835 
	C356.802704,330.602936 357.794434,329.741394 358.977448,330.693542 
	C360.412323,331.848419 359.546661,333.056244 358.768982,334.180389 
	C358.674713,334.316650 358.555481,334.435394 358.457611,334.569427 
	C352.585876,342.612610 351.884125,342.668732 344.613861,335.675079 
	C344.494049,335.559845 344.374573,335.444275 344.254547,335.329254 
	C335.998138,327.414978 336.067108,326.581665 345.894165,319.437927 
z"/>
<path fill="#1B5425" opacity="1.000000" stroke="none" 
	d="
M125.981209,252.692703 
	C129.134781,251.397171 128.986038,253.800598 129.507843,255.416504 
	C130.054871,257.110504 130.264847,259.509277 132.720337,258.926971 
	C134.736572,258.448853 133.548569,256.382355 133.503677,255.030533 
	C133.319977,249.498474 134.985413,246.940704 139.043411,246.759903 
	C142.564087,246.603027 145.771973,249.964935 146.263367,254.303284 
	C146.417267,255.662186 146.584885,257.173828 145.019760,257.693237 
	C143.259247,258.277527 142.864532,256.771088 142.386414,255.489319 
	C141.822723,253.978119 141.432617,251.715652 139.446365,252.061646 
	C137.244141,252.445282 137.898712,254.737106 138.178223,256.254761 
	C138.903992,260.195526 138.241760,263.436890 133.818253,264.270935 
	C129.569611,265.071991 127.511421,262.145630 126.133636,258.696899 
	C125.392212,256.841003 124.851524,254.906540 125.981209,252.692703 
z"/>
<path fill="#1B5425" opacity="1.000000" stroke="none" 
	d="
M124.665558,234.979858 
	C119.935463,233.976562 118.238518,231.041306 118.646736,226.865723 
	C119.047516,222.766144 121.749580,220.829941 125.642410,220.299881 
	C127.618454,220.030777 129.587006,219.586639 131.569809,219.512665 
	C135.433701,219.368530 137.922028,221.265854 138.662216,225.097656 
	C139.412094,228.979584 138.295578,232.083145 134.314758,233.511810 
	C131.332550,234.582062 128.237350,235.225693 124.665558,234.979858 
z"/>
<path fill="#1B5625" opacity="1.000000" stroke="none" 
	d="
M349.245422,314.780396 
	C350.719574,313.003204 351.880188,311.329620 353.378113,310.051331 
	C357.535217,306.503754 361.643311,307.334656 363.707397,312.417419 
	C364.832428,315.187683 366.279358,316.881409 369.227325,317.392670 
	C370.313599,317.581055 371.694214,318.007446 371.364624,319.591125 
	C371.084137,320.938782 369.895203,321.311768 368.655273,321.283447 
	C367.832581,321.264618 367.010193,321.093079 366.194153,320.952332 
	C364.605713,320.678284 362.658020,319.591705 361.582581,321.238770 
	C360.527313,322.855042 362.705414,323.687897 363.457977,324.859772 
	C364.004578,325.710968 364.666046,326.503693 364.111420,327.579041 
	C363.690125,328.395813 363.026062,328.719238 362.067108,328.568970 
	C359.732025,328.203094 349.761597,317.874359 349.245422,314.780396 
z"/>
<path fill="#1B5425" opacity="1.000000" stroke="none" 
	d="
M335.384399,351.877686 
	C335.034546,348.733459 331.767426,348.088928 330.185883,346.092102 
	C328.187653,343.569244 327.147705,340.974731 328.333984,337.807251 
	C329.360962,335.065125 331.377563,333.472412 334.216492,333.036072 
	C335.878387,332.780670 337.911621,332.799957 338.553345,334.573242 
	C339.382812,336.865234 337.255310,337.235535 335.658447,337.630188 
	C333.740204,338.104340 332.478516,339.253998 333.208252,341.167450 
	C334.241394,343.876404 336.248444,346.000824 339.111389,346.802704 
	C341.192261,347.385498 342.017975,345.828247 342.420868,344.014709 
	C342.736298,342.594879 342.878235,340.526611 344.815399,340.862762 
	C347.158905,341.269348 346.904358,343.591614 346.771393,345.366333 
	C346.419861,350.058167 343.478027,351.713531 335.384399,351.877686 
z"/>
<path fill="#1B5225" opacity="1.000000" stroke="none" 
	d="
M367.480530,152.696655 
	C369.754913,155.605194 369.506073,159.535675 371.913757,162.984467 
	C373.907410,160.554916 373.321564,157.967285 373.561096,155.656509 
	C374.000732,151.415390 376.208160,149.896698 380.298126,150.618668 
	C384.566620,151.372162 386.515442,153.897675 385.482147,157.993118 
	C384.878967,160.383728 383.685822,162.600403 384.660919,165.186722 
	C385.070587,166.273239 385.230743,167.613831 383.631836,167.995438 
	C382.260986,168.322601 381.528625,167.357773 380.926971,166.283600 
	C379.492645,163.722763 378.291046,160.205521 376.050110,165.957626 
	C375.176239,168.200745 373.169739,166.202789 371.361267,166.013580 
	C366.129639,162.725861 366.903290,157.715759 367.480530,152.696655 
z"/>
<path fill="#1B4F24" opacity="1.000000" stroke="none" 
	d="
M122.061760,165.391235 
	C120.112175,168.730850 118.731865,165.941910 117.225151,165.241364 
	C116.000587,165.505783 116.256538,166.415039 116.294624,167.210281 
	C116.337975,168.115509 116.113518,169.003464 115.155792,169.133408 
	C113.945023,169.297668 113.376526,168.365036 113.256577,167.311035 
	C112.844307,163.688644 112.453278,160.062012 112.166260,156.428146 
	C112.062546,155.115082 112.093040,153.630585 113.896751,153.342163 
	C115.584862,153.072266 116.144104,154.349747 116.772751,155.560242 
	C117.427887,156.821701 117.619629,158.899124 119.435822,158.701950 
	C121.162132,158.514526 121.117432,156.488678 121.585503,155.110474 
	C122.080734,153.652267 122.695946,152.114639 124.567268,152.329865 
	C126.513214,152.553635 126.557968,154.327866 126.711014,155.784546 
	C127.022675,158.750900 127.239876,161.727753 127.458427,164.703049 
	C127.552711,165.986526 127.980461,167.633911 126.202652,167.981979 
	C124.685707,168.278976 124.516716,166.757629 124.125061,165.674683 
	C123.748924,164.634659 123.258690,163.689362 122.061760,165.391235 
z"/>
<path fill="#1B5425" opacity="1.000000" stroke="none" 
	d="
M152.830109,306.287231 
	C157.194702,305.812469 160.993668,304.001923 164.996674,302.987732 
	C166.684631,302.560089 168.675262,301.513214 169.959732,303.556641 
	C171.024765,305.250977 169.715561,306.719238 168.835236,308.086823 
	C166.058823,312.399902 163.119537,316.613983 160.990845,321.684631 
	C160.962997,322.044128 160.991013,322.017822 161.005615,322.006775 
	C158.518051,321.416779 157.531174,320.048340 157.936661,317.335754 
	C158.458878,313.842163 156.746857,311.617279 153.156799,311.240570 
	C151.786453,311.096802 150.358917,311.217560 149.997192,309.574646 
	C149.541687,307.505951 151.689575,307.477722 152.830109,306.287231 
z"/>
<path fill="#1C4823" opacity="1.000000" stroke="none" 
	d="
M161.986877,164.609283 
	C154.963577,162.653015 159.751541,156.575180 157.731369,152.718353 
	C156.762695,150.869034 158.145950,149.057663 160.392044,148.156219 
	C166.105438,145.863190 170.547119,149.043213 169.794861,155.140259 
	C169.569580,156.966232 169.160828,158.636551 170.206009,160.399536 
	C170.915939,161.597076 171.946075,163.246643 170.026459,164.271240 
	C168.381790,165.149094 167.289459,163.923386 166.300919,162.700027 
	C165.615723,161.852112 165.310776,160.529572 163.850250,160.486282 
	C162.250443,161.366196 163.194687,163.296738 161.986877,164.609283 
z"/>
<path fill="#1B5425" opacity="1.000000" stroke="none" 
	d="
M326.011169,367.004211 
	C325.063904,361.713562 321.715485,357.463623 319.656708,352.641907 
	C319.028992,351.171753 317.750397,349.639038 319.069366,348.053040 
	C320.459442,346.381561 322.108551,347.562073 323.602814,348.100128 
	C327.162506,349.381836 330.701904,350.719940 334.622589,352.030701 
	C334.995697,352.026154 334.966400,351.998505 334.947784,351.988373 
	C335.703278,353.578278 338.771881,353.380829 338.332245,355.660248 
	C337.846558,358.178528 335.387115,356.828064 333.842834,357.343536 
	C331.101624,358.258545 329.642731,360.326599 329.809113,363.329193 
	C329.936829,365.633362 329.353760,367.261353 326.265869,366.945343 
	C325.959229,366.952545 325.993408,366.987427 326.011169,367.004211 
z"/>
<path fill="#1B5225" opacity="1.000000" stroke="none" 
	d="
M153.022858,306.007141 
	C152.059387,305.842010 151.080948,305.680206 150.101105,305.527405 
	C149.280197,305.399445 148.410004,305.414032 147.643921,305.137512 
	C143.842972,303.765686 142.022049,301.004852 142.643600,297.006989 
	C143.360260,292.397522 151.317719,286.533722 155.771225,287.263611 
	C159.845154,287.931274 161.791748,290.584656 161.766800,294.612305 
	C161.756683,296.243561 161.634933,298.315460 159.591995,298.614105 
	C157.545761,298.913208 157.433655,297.011993 157.251648,295.510010 
	C157.001831,293.448364 156.050751,291.755890 153.804916,292.120392 
	C150.631546,292.635345 148.357910,294.826477 147.377701,297.760010 
	C146.608261,300.062775 148.603500,300.848694 150.564606,301.236786 
	C152.956955,301.710175 153.266449,303.369354 152.911743,305.726166 
	C152.990723,306.045013 153.007263,306.014435 153.022858,306.007141 
z"/>
<path fill="#1B5425" opacity="1.000000" stroke="none" 
	d="
M223.387115,150.469254 
	C220.465225,152.501068 217.985489,153.365402 215.512878,150.585953 
	C214.885651,149.880905 213.980301,149.107224 212.915115,149.759567 
	C212.013580,150.311691 212.493927,151.237137 212.651428,152.024475 
	C212.881241,153.173431 213.298233,154.509674 211.665863,154.855957 
	C209.910233,155.228363 209.432281,153.760590 209.012741,152.491302 
	C208.074997,149.654190 207.232346,146.785645 206.293793,143.948822 
	C205.481155,141.492538 205.313232,139.361710 208.382904,138.344391 
	C211.457748,137.325409 214.527847,136.298615 216.962540,139.519531 
	C217.434036,140.143280 217.560745,141.042419 217.791336,141.830673 
	C218.453705,144.094910 216.485474,148.401123 220.502029,148.012939 
	C223.653534,147.708374 221.999405,143.568314 222.494095,141.140152 
	C222.923798,139.031021 223.273209,136.905502 223.839127,134.464630 
	C225.572800,134.428757 225.735809,135.799637 225.703201,136.863144 
	C225.565292,141.361755 225.580032,145.905930 223.387115,150.469254 
z"/>
<path fill="#1B5225" opacity="1.000000" stroke="none" 
	d="
M345.115967,149.362305 
	C348.412811,146.629501 351.962158,146.874298 355.280182,148.820099 
	C358.376038,150.635590 357.240692,153.667587 356.850189,156.434235 
	C356.595367,158.239594 356.763580,160.062561 357.727570,162.136292 
	C358.644623,162.879929 358.610565,163.317917 357.828522,163.604950 
	C354.832642,163.516022 352.322235,164.910629 349.410370,164.669449 
	C345.710175,164.362976 343.981354,162.930649 344.446136,159.085785 
	C344.819916,155.993607 344.960632,152.873260 345.115967,149.362305 
z"/>
<path fill="#1B4F24" opacity="1.000000" stroke="none" 
	d="
M401.380127,169.518433 
	C398.060699,170.300247 395.776031,169.717148 394.808441,166.434464 
	C394.547760,165.550095 394.106262,164.351913 392.920837,164.435760 
	C391.645050,164.525986 391.767334,165.845764 391.498077,166.745590 
	C391.143219,167.931396 390.655212,169.046204 389.167664,168.762482 
	C387.757202,168.493469 387.383392,167.243973 387.524109,166.064163 
	C387.993744,162.126343 388.093384,158.039215 389.299652,154.322403 
	C390.654175,150.148743 394.434967,152.323944 397.001953,152.875732 
	C400.396271,153.605347 401.057068,156.495102 400.192963,159.579575 
	C399.494049,162.074280 397.754395,164.510513 400.713837,167.089722 
	C401.950012,167.733536 402.114197,168.433731 401.380127,169.518433 
z"/>
<path fill="#1B5225" opacity="1.000000" stroke="none" 
	d="
M173.555695,161.230316 
	C173.164078,158.051804 172.723694,155.262390 172.527924,152.455917 
	C172.390884,150.491272 172.215210,148.233612 174.430191,147.212280 
	C176.918198,146.065079 179.659851,146.004944 182.175278,147.033463 
	C183.893646,147.736069 183.636475,149.010559 182.140213,149.999161 
	C180.938522,150.793106 179.087753,150.221497 178.261581,151.825333 
	C178.351868,153.275970 179.544388,153.179031 180.453964,153.352066 
	C181.657410,153.581039 182.866531,153.801117 182.743073,155.368210 
	C182.640442,156.670929 181.436478,156.640747 180.497971,156.893692 
	C179.452835,157.175385 177.803940,157.003845 178.124084,158.708450 
	C178.433136,160.353851 179.936859,159.623505 181.022736,159.650223 
	C182.623276,159.689575 184.790421,159.248322 184.751114,161.687057 
	C184.719101,163.674103 182.616119,163.695038 181.260040,163.614792 
	C178.619034,163.458527 175.145370,166.039841 173.555695,161.230316 
z"/>
<path fill="#1B5225" opacity="1.000000" stroke="none" 
	d="
M143.465668,156.883698 
	C143.442612,153.120880 142.926971,149.589157 148.028824,149.452881 
	C152.943085,149.321609 155.146759,151.038101 155.993134,156.176773 
	C157.158508,163.252365 155.383636,165.928345 149.344254,166.854355 
	C146.195755,167.337112 144.632767,166.373489 144.346786,163.181015 
	C144.170731,161.215698 143.773727,159.270157 143.465668,156.883698 
z"/>
<path fill="#1B4F24" opacity="1.000000" stroke="none" 
	d="
M289.826172,130.704132 
	C287.304535,130.990417 284.891846,128.868225 282.055573,129.572571 
	C281.625244,132.529236 286.558350,132.310913 285.136810,135.237518 
	C283.971527,137.636581 281.430511,134.466003 279.812683,135.958252 
	C279.454010,137.528305 280.617279,137.995728 281.571014,138.619156 
	C282.771149,139.403656 284.733856,140.060867 283.591278,141.887146 
	C282.591461,143.485275 280.890381,142.366013 279.529572,141.896362 
	C273.294647,139.744461 273.093384,139.264282 275.649658,133.056091 
	C276.154236,131.830734 276.501282,130.516449 277.164246,129.385803 
	C278.256561,127.522896 278.336334,124.040047 281.355286,124.690239 
	C284.661621,125.402321 288.908051,125.616814 289.826172,130.704132 
z"/>
<path fill="#1B4F24" opacity="1.000000" stroke="none" 
	d="
M249.774399,142.820557 
	C248.328568,142.624359 247.699081,141.826096 247.758163,140.745758 
	C247.975800,136.767456 248.145615,132.775635 248.636917,128.826660 
	C249.029495,125.671082 250.751877,124.482544 253.212845,127.190674 
	C255.773361,130.008347 258.004944,133.126434 260.354156,136.133606 
	C260.977844,136.931946 261.562988,137.885468 260.721832,138.802322 
	C260.359497,139.197220 259.349213,139.548935 259.011414,139.331879 
	C254.393646,136.364471 252.640503,140.619247 249.774399,142.820557 
z"/>
<path fill="#1B5425" opacity="1.000000" stroke="none" 
	d="
M391.762787,279.748230 
	C390.510529,282.923340 388.701691,283.921875 385.784241,282.451691 
	C381.934113,280.511536 378.035278,278.668335 374.166321,276.765228 
	C372.940399,276.162201 371.628082,275.439209 372.321045,273.782867 
	C373.141296,271.822266 374.740570,272.432495 376.125397,273.041901 
	C378.552917,274.110168 380.956207,275.240753 383.324371,276.434937 
	C386.327667,277.949371 388.673615,277.875946 390.030212,274.242096 
	C390.635681,272.620239 391.256134,270.143677 393.672089,271.390869 
	C395.705963,272.440796 393.969971,274.353577 393.553894,275.808899 
	C393.193848,277.068237 392.476196,278.225342 391.762787,279.748230 
z"/>
<path fill="#1B4F24" opacity="1.000000" stroke="none" 
	d="
M234.886597,145.341766 
	C236.986542,141.660843 234.736954,138.680756 234.043655,135.535034 
	C233.652466,133.760071 232.709930,131.799927 234.584244,130.504669 
	C236.785004,128.983826 239.467361,128.017197 242.085678,128.503311 
	C243.927948,128.845337 243.470581,130.355179 242.117737,131.346985 
	C241.001816,132.165131 238.703537,132.154327 239.168793,134.094223 
	C239.562912,135.737457 241.428116,134.783112 242.657486,134.928940 
	C243.536118,135.033142 244.292877,135.419373 244.429718,136.374985 
	C244.563965,137.312363 243.986298,137.985947 243.187286,138.316498 
	C240.835403,139.289474 240.065704,140.646515 240.764572,143.362274 
	C241.620041,146.686569 238.704926,146.411697 236.265839,146.760773 
	C235.011261,146.884003 234.635422,146.423279 234.886597,145.341766 
z"/>
<path fill="#1B5425" opacity="1.000000" stroke="none" 
	d="
M131.987701,155.154770 
	C132.615036,153.437851 132.783371,151.679947 134.580017,151.413712 
	C136.480972,151.132050 137.022797,152.838730 137.646713,154.142715 
	C139.217407,157.425446 140.736481,160.734924 142.174881,164.077286 
	C142.473648,164.771530 142.683762,165.933502 142.320007,166.388855 
	C141.674606,167.196808 140.543762,167.119888 139.628586,166.467484 
	C137.190887,164.729675 134.841766,164.136063 132.730484,166.950485 
	C132.170975,167.696335 131.421890,167.992188 130.562592,167.689011 
	C129.301117,167.243942 129.462738,166.113693 129.659958,165.174515 
	C130.339813,161.937057 131.119812,158.720627 131.987701,155.154770 
z"/>
<path fill="#1B5225" opacity="1.000000" stroke="none" 
	d="
M301.499084,142.765564 
	C302.964081,141.179001 303.997528,139.877686 305.190277,138.743973 
	C306.331085,137.659653 307.375610,135.800598 309.272308,136.689148 
	C310.771240,137.391357 310.683563,139.187912 310.653381,140.679871 
	C310.586578,143.980652 310.504639,147.282745 310.324554,150.578598 
	C310.272491,151.532318 310.044861,152.609650 308.840973,152.893188 
	C307.918518,153.110443 307.200500,152.718552 306.835144,151.864166 
	C305.086365,147.774323 301.867371,148.334229 298.274231,149.089767 
	C296.710510,147.793335 296.658417,146.726578 298.662567,145.620102 
	C299.021057,145.421356 299.276337,145.059326 299.513123,144.802505 
	C299.880768,144.406387 300.011627,144.267105 300.450745,143.830521 
	C300.885071,143.396851 301.011108,143.260468 301.499084,142.765564 
z"/>
<path fill="#1B5225" opacity="1.000000" stroke="none" 
	d="
M401.290558,169.796539 
	C401.019806,169.110550 401.024841,168.505951 401.031189,167.600098 
	C401.032501,167.298843 401.129913,167.082642 401.203644,166.989807 
	C401.380066,166.727203 401.482727,166.557449 401.792358,166.173889 
	C402.828796,162.539047 404.485382,159.485779 406.360229,156.564392 
	C408.013458,153.988419 409.897186,153.936127 410.893372,156.958466 
	C412.078064,160.552689 412.872772,164.285767 413.655701,167.996811 
	C413.953278,169.407379 413.299255,172.086761 411.758820,170.493835 
	C408.183502,166.796692 405.028229,168.575989 401.290558,169.796539 
z"/>
<path fill="#1C4823" opacity="1.000000" stroke="none" 
	d="
M401.774017,244.750763 
	C397.716278,243.670532 394.028595,242.663483 390.345978,241.638107 
	C388.836517,241.217804 387.272888,240.594925 387.657654,238.688889 
	C388.116577,236.415970 389.920166,236.671371 391.637268,237.098938 
	C395.506256,238.062317 399.398712,238.942688 403.233673,240.026535 
	C405.072662,240.546249 407.673798,240.991196 406.870667,243.747192 
	C406.138947,246.258331 403.849579,244.921967 401.774017,244.750763 
z"/>
<path fill="#1B4F24" opacity="1.000000" stroke="none" 
	d="
M345.059143,148.893646 
	C342.202423,152.099503 339.596771,155.428955 339.373535,160.045776 
	C339.310608,161.347092 338.803223,162.833450 337.040527,162.669052 
	C335.158905,162.493561 335.234344,160.862656 335.443451,159.613815 
	C336.023987,156.147308 334.627289,153.151276 333.566559,150.034500 
	C333.172211,148.875824 332.454407,147.292664 334.066956,146.536163 
	C335.444702,145.889801 336.130402,147.154175 336.614136,148.230530 
	C337.713440,150.676529 338.912933,150.687820 340.518555,148.615570 
	C341.777191,146.991119 343.261597,146.001572 344.890808,148.716339 
	C345.027130,148.959167 345.044556,148.913498 345.059143,148.893646 
z"/>
<path fill="#1B4F24" opacity="1.000000" stroke="none" 
	d="
M298.644409,145.369308 
	C298.735657,146.405624 298.450287,147.389908 298.086609,148.675476 
	C294.091156,147.417374 288.479095,147.703857 286.887482,143.484024 
	C285.475342,139.740097 289.789215,135.963242 290.049744,131.377289 
	C290.017273,130.994568 289.993347,131.023193 289.981903,131.038971 
	C291.267151,130.701019 292.303314,128.649506 293.883881,130.256531 
	C295.031311,131.423187 294.126801,132.748047 293.735809,133.980301 
	C293.635925,134.295059 293.470978,134.588531 293.354645,134.898804 
	C290.480011,142.564560 290.480499,142.564743 298.644409,145.369308 
z"/>
<path fill="#1B5425" opacity="1.000000" stroke="none" 
	d="
M234.857422,144.782776 
	C235.341171,145.553650 235.537399,146.007050 235.816208,146.639389 
	C235.474884,147.055466 234.922745,147.599564 234.646210,147.483994 
	C230.050323,145.563690 226.702332,147.605087 223.346741,150.789719 
	C223.340332,145.522797 223.677536,140.276932 224.017441,134.586548 
	C229.352463,134.295456 230.166946,139.239548 232.857025,142.654144 
	C233.173431,143.097839 233.349640,143.230835 233.764526,143.593414 
	C234.192108,144.037109 234.381012,144.251221 234.857422,144.782776 
z"/>
<path fill="#1B5625" opacity="1.000000" stroke="none" 
	d="
M357.599121,163.745636 
	C357.697144,163.195618 357.789093,162.969025 357.925690,162.613815 
	C357.972595,162.486130 358.230621,162.088409 358.378296,161.903000 
	C358.526001,161.717590 358.630981,161.329361 358.805481,161.229431 
	C359.994537,157.288864 361.962891,153.916977 364.339478,150.348938 
	C365.417236,149.201324 366.296326,149.394043 367.232880,150.403412 
	C367.404205,151.054611 367.521393,151.336563 367.794922,152.050079 
	C368.231049,156.893005 369.427582,161.102081 370.909302,165.628906 
	C371.044403,165.979736 371.040283,166.043594 371.008789,166.049347 
	C370.369995,166.666611 369.687469,166.905624 368.564758,166.232147 
	C366.244751,163.151718 363.887146,162.327499 360.842560,164.541672 
	C359.737061,165.345657 358.458496,165.717331 357.599121,163.745636 
z"/>
<path fill="#1B5225" opacity="1.000000" stroke="none" 
	d="
M367.224854,150.572906 
	C366.528839,150.559692 365.770630,150.346710 364.779114,150.093628 
	C365.509613,149.410919 366.408478,149.299850 367.224854,150.572906 
z"/>
<path fill="#1B5225" opacity="1.000000" stroke="none" 
	d="
M368.402832,166.145721 
	C368.938354,165.999023 369.618042,166.014130 370.637512,166.042145 
	C370.279602,167.221329 369.437592,166.998230 368.402832,166.145721 
z"/>
<path fill="#1B4F24" opacity="1.000000" stroke="none" 
	d="
M233.893036,143.709564 
	C233.737946,143.632782 233.485260,143.427170 233.121185,143.085495 
	C233.259094,143.175278 233.520981,143.385712 233.893036,143.709564 
z"/>
<path fill="#1B4F24" opacity="1.000000" stroke="none" 
	d="
M300.710632,143.550003 
	C300.759064,143.533234 300.619812,143.670609 300.588623,143.701401 
	C300.557465,143.732193 300.662201,143.566772 300.710632,143.550003 
z"/>
<path fill="#1B4F24" opacity="1.000000" stroke="none" 
	d="
M299.705170,144.559265 
	C299.749908,144.545685 299.623718,144.669708 299.595642,144.697617 
	C299.567596,144.725525 299.660431,144.572861 299.705170,144.559265 
z"/>
<path fill="#1B4F24" opacity="1.000000" stroke="none" 
	d="
M301.789612,142.445343 
	C301.860992,142.407043 301.639679,142.633392 301.588745,142.685196 
	C301.537811,142.737000 301.718231,142.483658 301.789612,142.445343 
z"/>
<path fill="#1B4F24" opacity="1.000000" stroke="none" 
	d="
M401.855957,166.099152 
	C401.842194,166.172546 401.682098,166.382782 401.398193,166.743866 
	C401.383728,166.651810 401.528809,166.432236 401.855957,166.099152 
z"/>
<path fill="#1B5225" opacity="1.000000" stroke="none" 
	d="
M358.882385,161.212738 
	C358.878937,161.264648 358.776428,161.398727 358.599274,161.624664 
	C358.526001,161.717590 358.784760,161.295975 358.882385,161.212738 
z"/>
<path fill="#1B5625" opacity="1.000000" stroke="none" 
	d="
M306.117096,62.350182 
	C309.044922,64.720444 309.879150,68.099045 311.728851,70.828430 
	C312.683502,72.237083 313.093353,74.922241 315.194977,74.390610 
	C316.961639,73.943718 316.097443,71.502060 316.267151,69.930061 
	C316.462799,68.117874 316.431824,66.280449 316.645691,64.471291 
	C316.792938,63.225967 317.466064,62.290306 318.906433,62.276024 
	C320.336517,62.261841 321.124664,63.153591 321.225037,64.406677 
	C321.796112,71.533752 321.693451,78.672180 321.294464,85.803101 
	C321.222290,87.092789 320.292114,87.865067 318.912750,87.867661 
	C317.099304,87.871063 315.750580,87.041862 314.761566,85.544830 
	C312.413940,81.991295 311.184814,77.730927 307.635315,74.116486 
	C306.156189,77.518898 306.996643,80.667793 306.665222,83.647987 
	C306.480225,85.311729 306.476379,87.310295 304.306915,87.454536 
	C301.726013,87.626129 301.554810,85.443581 301.533142,83.613998 
	C301.464264,77.800804 301.471954,71.985474 301.550598,66.172333 
	C301.587036,63.476810 302.606903,61.599880 306.117096,62.350182 
z"/>
<path fill="#1B5625" opacity="1.000000" stroke="none" 
	d="
M360.535187,63.490017 
	C368.618622,60.080650 374.060852,62.975616 375.261688,71.124672 
	C375.770813,74.579597 375.902832,78.108727 374.837250,81.524429 
	C373.486328,85.854736 370.387329,88.218048 365.957947,88.242683 
	C361.336578,88.268402 357.860321,86.041031 356.808655,81.309692 
	C355.408051,75.008514 354.771912,68.725601 360.535187,63.490017 
z"/>
<path fill="#1B5625" opacity="1.000000" stroke="none" 
	d="
M206.793335,72.277344 
	C206.738342,75.212532 206.824570,77.718529 206.568283,80.189003 
	C206.067886,85.012390 203.092438,87.832298 198.451218,88.181717 
	C193.989044,88.517639 190.357147,86.665504 188.641846,82.096291 
	C186.720398,76.977928 187.264801,71.839439 189.188400,66.997147 
	C190.845413,62.825920 194.630463,61.224369 198.985352,61.831692 
	C203.893814,62.516216 206.115692,65.592308 206.793335,72.277344 
z"/>
<path fill="#1B5425" opacity="1.000000" stroke="none" 
	d="
M276.199585,66.258209 
	C273.286194,66.820404 270.633911,66.940323 267.980316,67.008102 
	C266.340729,67.049988 264.822784,67.471687 264.683289,69.312363 
	C264.522369,71.435463 266.124573,72.089867 267.933777,72.280098 
	C268.760468,72.367020 269.598480,72.352303 270.423126,72.451752 
	C272.315674,72.679962 274.997284,72.191643 274.868835,75.112137 
	C274.747711,77.865807 272.096893,77.419975 270.196869,77.671577 
	C269.208954,77.802391 268.201569,77.784744 267.212677,77.910431 
	C266.010559,78.063217 264.789734,78.425743 264.710388,79.860275 
	C264.614380,81.595154 265.982117,82.074181 267.358063,82.214310 
	C269.341705,82.416321 271.347198,82.398056 273.333374,82.581848 
	C275.112457,82.746475 276.733368,83.345108 276.587189,85.540382 
	C276.456146,87.507988 274.876434,87.744659 273.299011,87.814056 
	C273.132721,87.821373 272.966492,87.835915 272.800232,87.836235 
	C257.413940,87.865616 259.356689,89.266678 259.287598,75.241508 
	C259.268799,71.426292 259.599060,67.609375 259.915894,63.412331 
	C264.461121,61.565517 268.859528,61.256931 273.517761,61.972466 
	C276.302948,62.400288 276.599457,63.659225 276.199585,66.258209 
z"/>
<path fill="#1B5625" opacity="1.000000" stroke="none" 
	d="
M167.151871,71.089935 
	C167.681183,67.567307 165.609955,63.216167 169.937668,61.990749 
	C174.435379,60.717182 179.271622,61.244968 183.120010,64.361290 
	C185.866791,66.585571 185.938278,69.801262 184.880615,73.043266 
	C183.581711,77.024765 180.407364,78.373993 176.724487,78.162857 
	C172.763184,77.935760 171.690521,79.562744 172.181458,83.156204 
	C172.474548,85.301270 172.725296,88.003387 169.558304,87.930214 
	C166.400848,87.857269 167.015701,85.112144 167.040344,82.996902 
	C167.084717,79.187378 167.113785,75.377670 167.151871,71.089935 
z"/>
<path fill="#1B5625" opacity="1.000000" stroke="none" 
	d="
M297.477600,67.131256 
	C298.257721,72.260262 295.467865,71.107918 293.194214,69.720589 
	C287.300232,66.124138 285.854126,66.813721 285.268524,73.902992 
	C284.592621,82.084808 286.593536,83.537430 293.847839,80.124840 
	C295.094910,79.538193 296.463654,78.998840 297.479034,80.261719 
	C298.483185,81.510666 297.649353,82.789093 296.910065,83.900482 
	C294.749756,87.148094 291.638000,88.261986 287.863281,87.846909 
	C284.234253,87.447861 281.553101,85.672638 280.428680,82.160240 
	C278.927185,77.469917 278.911194,72.658928 280.390656,67.964516 
	C282.652802,60.786530 293.833740,59.499390 297.477600,67.131256 
z"/>
<path fill="#1B5425" opacity="1.000000" stroke="none" 
	d="
M342.697418,87.994423 
	C337.745239,86.851479 335.759186,83.609245 335.512299,79.244064 
	C335.325531,75.940987 335.260925,72.565865 335.729858,69.307426 
	C336.306549,65.300453 338.881592,62.746769 343.024292,62.251965 
	C346.878662,61.791595 350.367523,62.559132 352.497498,66.242447 
	C353.225189,67.500763 354.254578,69.039764 352.741974,70.288651 
	C351.395599,71.400284 349.905334,70.734451 348.688904,69.689011 
	C347.074707,68.301682 345.625458,66.304077 343.111694,67.625717 
	C340.602844,68.944771 340.876770,71.477097 340.803711,73.786156 
	C340.766998,74.947052 340.755585,76.119972 340.875336,77.272636 
	C341.371796,82.050735 343.918396,83.373627 347.949127,80.914848 
	C349.604706,79.904953 351.396698,77.849213 353.026703,80.205193 
	C354.322754,82.078453 352.688904,84.040154 351.272949,85.437103 
	C349.024506,87.655418 346.224823,88.542976 342.697418,87.994423 
z"/>
<path fill="#1B5625" opacity="1.000000" stroke="none" 
	d="
M250.369812,71.844879 
	C250.417206,76.243088 250.484451,80.218109 250.405945,84.190254 
	C250.376282,85.690941 250.083099,87.367950 248.109558,87.461098 
	C245.837326,87.568344 245.446213,85.790642 245.392517,84.073601 
	C245.268295,80.101173 245.265717,76.124725 245.232162,72.149750 
	C245.209427,69.457382 244.757141,67.126526 241.359055,66.920113 
	C239.843445,66.828064 238.852524,66.113548 238.902176,64.435043 
	C238.963486,62.361389 240.463669,62.094822 242.023697,62.092880 
	C245.667648,62.088337 249.313339,62.119419 252.954971,62.238510 
	C254.560089,62.291000 256.585602,62.097736 256.861298,64.358345 
	C257.157318,66.785751 255.156113,66.830070 253.511765,66.964699 
	C250.638718,67.199921 249.910736,68.879089 250.369812,71.844879 
z"/>
<path fill="#1B5425" opacity="1.000000" stroke="none" 
	d="
M227.606628,84.501633 
	C224.931778,91.259148 219.412598,86.563576 215.297226,87.738899 
	C213.065277,88.376320 210.837799,87.290199 210.663956,84.519768 
	C210.268692,78.220711 210.129974,71.902710 210.801117,65.613380 
	C210.972275,64.009491 211.416168,62.049263 213.695358,62.282780 
	C216.001831,62.519089 215.802826,64.518448 215.834625,66.147049 
	C215.902710,69.634720 216.059296,73.135078 215.848938,76.610222 
	C215.564285,81.313187 217.552643,83.378235 222.253906,83.153740 
	C224.012833,83.069748 225.951401,82.741028 227.606628,84.501633 
z"/>
<path fill="#1B5425" opacity="1.000000" stroke="none" 
	d="
M326.026306,80.732193 
	C325.481415,75.549225 325.063171,70.770164 325.738098,65.992508 
	C325.986389,64.234924 326.248474,62.074818 328.737244,62.155396 
	C331.606262,62.248287 331.447815,64.661003 331.482971,66.574707 
	C331.583008,72.024666 331.589996,77.478722 331.493530,82.928688 
	C331.456238,85.036179 331.487518,87.730522 328.389496,87.544487 
	C325.296844,87.358780 325.699371,84.809235 325.905121,82.631050 
	C325.951691,82.137878 325.983917,81.643341 326.026306,80.732193 
z"/>
<path fill="#1B5425" opacity="1.000000" stroke="none" 
	d="
M235.876831,69.217514 
	C235.891068,74.494911 235.888748,79.305489 235.925842,84.115768 
	C235.941101,86.094788 235.731476,87.957909 233.165131,87.898865 
	C230.926514,87.847359 230.544052,86.024796 230.572403,84.335487 
	C230.680832,77.875137 230.918137,71.416855 231.121597,64.958260 
	C231.167526,63.500736 231.651138,62.256378 233.338745,62.205536 
	C234.989197,62.155819 235.655075,63.282490 235.752197,64.773476 
	C235.838379,66.096252 235.838196,67.424652 235.876831,69.217514 
z"/>
<path fill="#1C4823" opacity="1.000000" stroke="none" 
	d="
M276.111938,66.451241 
	C275.445770,63.852314 273.406128,63.093517 270.878113,63.065498 
	C267.581177,63.028950 264.283722,63.037544 260.524597,63.029076 
	C263.290131,61.406597 267.013306,60.548012 268.353851,56.353088 
	C268.696075,55.282234 270.420776,54.005440 272.127838,54.923523 
	C273.849335,55.849392 273.683411,57.202770 272.727448,58.684475 
	C271.605682,60.423203 272.810516,60.991116 274.214508,61.442692 
	C276.677277,62.234798 276.992737,63.989616 276.111938,66.451241 
z"/>
<path fill="#050505" opacity="1.000000" stroke="none" 
	d="
M325.332642,259.285126 
	C331.859589,256.594635 336.550385,252.247177 340.547699,246.962387 
	C343.611786,242.911392 344.932098,238.815033 342.345825,234.017532 
	C341.351135,232.172409 340.685181,230.041458 343.344055,229.002762 
	C345.626495,228.111130 347.199707,229.414093 348.118805,231.457184 
	C351.057404,237.989349 353.965088,244.535583 356.846344,251.093262 
	C357.560974,252.719666 357.872742,254.404495 355.829956,255.356155 
	C353.669952,256.362427 352.085907,255.671371 350.766479,253.666382 
	C347.596893,248.849838 347.517883,248.868179 343.847534,253.134644 
	C339.671295,257.989166 334.682190,261.834229 329.244293,265.153748 
	C328.296387,265.732391 326.773773,266.186096 327.069824,267.573822 
	C327.437195,269.295929 329.126373,268.892639 330.398560,268.922729 
	C331.728943,268.954163 333.062927,268.815613 334.394104,268.835297 
	C336.666962,268.868896 338.855072,269.098846 339.044373,272.107513 
	C339.250824,275.389069 336.905182,275.884552 334.483490,276.136200 
	C332.664429,276.325226 330.823273,276.343781 328.991272,276.359589 
	C320.160461,276.435760 311.329437,276.511353 302.498383,276.526978 
	C300.116425,276.531189 297.580688,276.478638 297.479218,273.113556 
	C297.370789,269.519104 299.919373,269.300049 302.576416,269.204498 
	C305.976501,269.082214 309.452637,269.445709 312.836517,268.287323 
	C312.147888,265.931519 310.453094,266.008453 309.094086,265.681580 
	C297.660309,262.931763 288.296509,256.927826 280.935028,247.798523 
	C279.613800,246.160004 278.177185,244.842148 275.980560,244.877136 
	C273.603180,244.915039 270.504517,243.868927 269.617279,247.175461 
	C268.713898,250.542084 268.269012,254.109207 271.931641,256.565796 
	C283.809967,264.532928 286.969086,276.903198 280.490479,289.725983 
	C277.748077,295.153809 273.891296,299.686707 269.602814,303.941986 
	C265.114716,308.395355 265.123230,310.692139 269.411957,315.354706 
	C273.283844,319.564056 277.973328,322.739594 282.828583,325.695282 
	C284.554413,326.745911 286.219543,327.155945 287.843231,325.634491 
	C289.373322,324.200745 291.807495,322.958008 290.652710,320.382965 
	C289.432983,317.663116 290.909393,316.776520 292.866211,315.861694 
	C296.035828,314.379852 299.184662,312.853119 302.363861,311.392426 
	C304.630554,310.351044 305.612549,311.303772 305.215851,313.583618 
	C304.616699,317.027039 303.849762,320.442780 303.086548,323.855164 
	C302.865387,324.843903 302.278076,326.085815 301.252869,325.976868 
	C296.350800,325.455902 294.292114,329.405670 291.534027,332.070648 
	C284.225128,339.132812 277.193237,346.482452 269.857819,353.516113 
	C263.877655,359.250244 260.160858,359.210327 253.735565,353.895477 
	C245.347549,346.957184 238.535446,338.504150 231.308212,330.453918 
	C229.352188,328.275177 227.475311,326.338806 224.092072,327.135162 
	C222.096970,327.604767 221.030426,326.256775 220.599670,324.411652 
	C219.652786,320.355499 218.680847,316.304688 217.788742,312.236450 
	C217.173248,309.429688 218.292938,308.737579 220.685745,310.159149 
	C225.268646,312.881683 229.814529,315.667206 234.351746,318.465515 
	C235.359024,319.086731 236.325516,319.917572 236.016312,321.276398 
	C234.433578,328.231598 238.373123,324.103851 240.038254,323.109955 
	C243.030792,321.323822 245.585785,318.791412 248.608292,317.070953 
	C260.007874,310.582184 263.196777,300.651337 261.365906,288.307648 
	C260.963745,285.596313 260.403564,283.476685 257.434448,282.709412 
	C251.541809,281.186584 248.312561,277.507782 248.351791,271.243134 
	C248.391953,264.832733 252.226639,259.214386 258.222687,257.008575 
	C260.682098,256.103851 263.716949,255.929413 264.019531,252.451797 
	C264.229980,250.032944 265.280334,246.815750 262.726593,245.555069 
	C259.223969,243.825943 255.161835,243.883087 251.887894,246.566727 
	C249.849838,248.237335 248.311234,250.502350 246.430511,252.382584 
	C240.362091,258.449432 233.071030,262.222626 224.638367,263.814056 
	C222.675385,264.184509 220.683258,264.507568 218.791962,265.121643 
	C216.801239,265.768005 214.997330,267.033142 215.409424,269.416260 
	C215.780914,271.564606 217.913223,271.239075 219.505203,271.392212 
	C222.820953,271.711151 226.150055,271.891510 229.465286,272.214935 
	C231.107513,272.375122 232.385620,273.166412 232.334793,275.033173 
	C232.283417,276.920288 230.917542,277.648499 229.289871,277.659363 
	C217.461960,277.738403 205.633530,277.788086 193.805542,277.752411 
	C191.822403,277.746429 190.124786,276.816772 190.152756,274.497620 
	C190.180847,272.164948 191.910568,271.443054 193.899323,271.346771 
	C197.225891,271.185730 200.562469,271.211700 203.885696,271.009033 
	C205.651398,270.901306 207.156647,270.089325 207.511490,268.148468 
	C207.884583,266.107880 206.574921,265.094208 204.893936,264.450897 
	C198.624695,262.051697 193.917786,257.570496 189.539688,252.733170 
	C186.763321,249.665543 184.568619,249.031418 182.447540,253.309296 
	C181.469727,255.281403 180.051392,257.373016 177.420929,256.099548 
	C174.613129,254.740189 175.926071,252.473785 176.818176,250.498138 
	C179.560867,244.424240 182.300919,238.348663 185.114151,232.307358 
	C186.098206,230.194122 187.208313,227.554520 190.182709,228.934067 
	C192.637863,230.072784 191.482864,232.405640 190.724472,234.207336 
	C189.142792,237.964935 189.784790,241.318024 192.065414,244.573807 
	C195.709854,249.776535 199.301620,254.972610 205.279526,257.885864 
	C209.113342,259.754211 211.731888,259.353455 213.583557,255.010086 
	C221.554764,236.312561 229.669449,217.675766 237.827332,199.058685 
	C239.378036,195.519852 238.363937,193.794327 234.726074,193.032898 
	C227.241653,191.466400 219.829544,191.710663 212.445663,193.603439 
	C209.132309,194.452789 206.902008,196.445526 205.695068,199.680618 
	C205.119446,201.223541 204.437134,202.785385 203.487976,204.113403 
	C202.569702,205.398178 201.046967,205.982895 199.481430,205.294724 
	C197.851562,204.578278 197.357895,203.006638 197.971848,201.509018 
	C201.065430,193.962814 204.229248,186.443176 207.530106,178.985779 
	C208.325729,177.188293 210.223602,177.097992 211.899353,177.739410 
	C213.701752,178.429321 213.780762,180.051514 213.158493,181.520966 
	C211.138031,186.292191 213.337936,186.769547 217.485825,186.499542 
	C224.938507,186.014389 232.472397,185.243729 239.758057,187.924332 
	C241.964066,188.735977 243.820633,188.276566 244.474503,185.789536 
	C245.251541,182.833939 242.990723,182.388870 240.970169,182.242340 
	C237.155365,181.965652 233.321075,181.967773 229.496918,181.805969 
	C227.204712,181.708969 225.693817,180.775970 225.742523,178.165558 
	C225.789474,175.649368 227.209427,174.597275 229.505569,174.415161 
	C230.666962,174.323059 231.835602,174.288132 233.001068,174.286057 
	C254.830917,174.247192 276.660797,174.215256 298.490662,174.190445 
	C299.656097,174.189117 300.822601,174.244415 301.986816,174.306625 
	C303.875305,174.407501 305.179993,175.186981 305.311188,177.271332 
	C305.450073,179.478760 304.377960,180.861618 302.240479,181.064697 
	C298.764069,181.394989 295.262573,181.451904 291.777679,181.706238 
	C289.821045,181.849060 287.306244,181.700378 287.821777,184.768417 
	C288.292023,187.567032 289.918610,190.585663 293.048798,189.399277 
	C301.142822,186.331497 309.305511,186.306915 317.668335,187.204147 
	C320.995483,187.561096 321.874573,185.790543 320.683594,182.873154 
	C319.957397,181.094208 319.842773,179.694931 322.011993,178.877762 
	C324.108978,178.087845 325.696259,178.673050 326.579529,180.620651 
	C329.674927,187.446381 332.673035,194.316269 335.701904,201.172119 
	C336.460388,202.888947 336.539581,204.571426 334.515167,205.346909 
	C332.713165,206.037186 330.802917,205.956833 329.684021,204.004364 
	C327.414886,200.044861 326.175262,195.459229 320.605865,194.235168 
	C313.129883,192.592072 305.805786,192.166672 298.377167,194.215347 
	C294.552673,195.270081 293.162262,197.073517 294.963196,201.112625 
	C302.968658,219.067459 310.774353,237.111252 318.708527,255.098099 
	C319.871399,257.734406 321.244446,260.373291 325.332642,259.285126 
z"/>
<path fill="#070807" opacity="1.000000" stroke="none" 
	d="
M399.574768,256.121674 
	C397.212158,257.707916 395.926361,256.924042 395.944275,254.536530 
	C395.954895,253.117294 396.783997,251.254547 398.494873,251.591507 
	C401.010986,252.087067 400.349030,254.135086 399.574768,256.121674 
z"/>
<path fill="#070807" opacity="1.000000" stroke="none" 
	d="
M391.748077,250.779114 
	C392.009796,252.777054 392.020081,254.538528 389.795593,254.688171 
	C388.437012,254.779587 387.736816,253.667206 388.114777,252.373444 
	C388.606934,250.688934 389.120087,248.625214 391.748077,250.779114 
z"/>
<path fill="#020302" opacity="1.000000" stroke="none" 
	d="
M256.147461,407.216431 
	C255.997986,410.528015 256.803406,414.698639 252.531952,414.459442 
	C248.490204,414.233124 250.197998,410.090027 249.972565,407.540039 
	C249.812317,405.727509 249.995987,403.652771 252.397690,403.254761 
	C255.036575,402.817505 255.915634,404.517639 256.147461,407.216431 
z"/>
<path fill="#050505" opacity="1.000000" stroke="none" 
	d="
M132.361725,229.671570 
	C129.901840,230.174225 127.788399,230.644485 125.651749,230.804169 
	C124.154694,230.916031 123.232269,229.861511 122.804718,228.460419 
	C122.322807,226.881195 123.206711,225.858109 124.430443,225.205933 
	C126.531662,224.086044 128.898056,223.485184 131.191254,224.001144 
	C134.763580,224.804916 135.651596,226.725235 132.361725,229.671570 
z"/>
<path fill="#0F100F" opacity="1.000000" stroke="none" 
	d="
M354.341431,315.658875 
	C355.071411,313.316376 356.381714,311.742432 358.616119,313.069763 
	C360.195648,314.008087 359.462097,315.668854 358.365601,316.812805 
	C356.604919,318.649780 355.283447,318.061676 354.341431,315.658875 
z"/>
<path fill="#0F100F" opacity="1.000000" stroke="none" 
	d="
M380.395935,154.794800 
	C381.956757,156.134125 381.183502,156.912140 379.988678,157.388870 
	C379.150330,157.723389 378.266357,157.354019 378.074738,156.434433 
	C377.727020,154.765701 378.873474,154.602646 380.395935,154.794800 
z"/>
<path fill="#0F100F" opacity="1.000000" stroke="none" 
	d="
M161.731064,310.966309 
	C160.218277,310.935760 159.668350,310.271149 160.384445,309.129181 
	C160.823334,308.429291 161.860397,307.997040 162.511246,308.547485 
	C163.564468,309.438232 162.763153,310.242462 161.731064,310.966309 
z"/>
<path fill="#020302" opacity="1.000000" stroke="none" 
	d="
M164.629364,152.656952 
	C165.033356,153.940506 164.365814,154.313385 163.476807,154.231613 
	C163.171097,154.203476 162.649338,153.550308 162.691666,153.247803 
	C162.843201,152.164993 163.628113,152.155731 164.629364,152.656952 
z"/>
<path fill="#0F100F" opacity="1.000000" stroke="none" 
	d="
M325.922913,353.717377 
	C327.461670,353.755402 328.415924,354.237946 328.155212,355.775421 
	C328.034790,356.485779 327.419952,357.105316 326.777557,356.791718 
	C325.571991,356.203156 324.623291,355.292389 325.922913,353.717377 
z"/>
<path fill="#0F100F" opacity="1.000000" stroke="none" 
	d="
M212.934937,144.072723 
	C211.442780,144.558884 210.234665,144.530518 210.120270,142.906357 
	C210.035599,141.704315 211.040588,141.059448 212.120178,141.215927 
	C213.848511,141.466431 214.498383,142.381836 212.934937,144.072723 
z"/>
<path fill="#0F100F" opacity="1.000000" stroke="none" 
	d="
M350.306396,160.609283 
	C349.019409,160.050125 348.315735,159.286194 349.226227,158.278687 
	C350.003723,157.418381 351.218323,157.643112 351.830200,158.478134 
	C352.820984,159.830307 352.134918,160.580261 350.306396,160.609283 
z"/>
<path fill="#0F100F" opacity="1.000000" stroke="none" 
	d="
M350.622009,151.454498 
	C351.959869,151.233002 352.743500,151.626450 352.779877,152.816696 
	C352.803131,153.577530 352.212738,153.955490 351.513489,153.895035 
	C349.921661,153.757385 349.777283,152.834183 350.622009,151.454498 
z"/>
<path fill="#070807" opacity="1.000000" stroke="none" 
	d="
M395.380402,156.335159 
	C396.817871,157.587570 396.496887,158.498169 395.090912,158.993378 
	C394.298981,159.272278 393.325012,159.097092 393.127380,158.089188 
	C392.828461,156.564682 393.664612,156.007233 395.380402,156.335159 
z"/>
<path fill="#070807" opacity="1.000000" stroke="none" 
	d="
M151.078690,154.112518 
	C152.231491,155.203110 152.580276,156.291534 152.591263,157.475006 
	C152.609390,159.424438 152.991364,162.177567 150.405594,162.220703 
	C146.657913,162.283203 147.924347,158.656830 147.484573,156.548492 
	C146.963058,154.048126 147.950012,152.603531 151.078690,154.112518 
z"/>
<path fill="#070807" opacity="1.000000" stroke="none" 
	d="
M252.422958,132.721481 
	C253.282486,132.588806 253.762253,132.966171 253.695221,133.656631 
	C253.669617,133.920349 253.019196,134.384888 252.777145,134.317017 
	C252.051392,134.113495 252.083176,133.470779 252.422958,132.721481 
z"/>
<path fill="#0F100F" opacity="1.000000" stroke="none" 
	d="
M136.030823,159.071899 
	C136.503510,159.822769 136.532898,160.470490 135.865311,160.800812 
	C135.621826,160.921310 134.853470,160.596664 134.790405,160.354019 
	C134.577362,159.534409 134.704987,158.766953 136.030823,159.071899 
z"/>
<path fill="#0F100F" opacity="1.000000" stroke="none" 
	d="
M305.356873,144.502991 
	C305.431580,143.650330 305.706879,143.090622 306.535400,143.452209 
	C306.721222,143.533295 306.878082,144.032150 306.812256,144.274612 
	C306.586060,145.107773 306.058685,145.177032 305.356873,144.502991 
z"/>
<path fill="#0F100F" opacity="1.000000" stroke="none" 
	d="
M408.999451,162.833176 
	C408.896698,163.998825 408.441040,164.600861 407.470032,164.012070 
	C406.842285,163.631409 406.925781,162.844757 407.312531,162.307327 
	C408.011047,161.336731 408.584930,161.659683 408.999451,162.833176 
z"/>
<path fill="#0F100F" opacity="1.000000" stroke="none" 
	d="
M227.316315,140.772003 
	C228.165298,141.484528 228.474136,142.213028 227.571732,142.825302 
	C227.330338,142.989090 226.503555,142.777786 226.367447,142.517792 
	C225.956116,141.732071 225.992676,140.942963 227.316315,140.772003 
z"/>
<path fill="#0F100F" opacity="1.000000" stroke="none" 
	d="
M363.987244,157.763245 
	C364.565796,156.694550 365.205170,156.359879 365.776367,157.447021 
	C365.947357,157.772507 365.812256,158.557907 365.539612,158.762604 
	C364.640137,159.437881 364.080811,159.032730 363.987244,157.763245 
z"/>
<path fill="#050505" opacity="1.000000" stroke="none" 
	d="
M369.075439,80.690155 
	C364.442810,83.451271 362.303009,82.550537 361.850769,77.886665 
	C361.597534,75.275269 361.414398,72.596954 362.266510,70.034691 
	C362.835297,68.324463 364.065948,67.215904 365.934998,67.248161 
	C367.789764,67.280174 369.020966,68.331017 369.467102,70.142448 
	C370.307678,73.555412 370.595490,76.973221 369.075439,80.690155 
z"/>
<path fill="#070807" opacity="1.000000" stroke="none" 
	d="
M199.317932,82.218544 
	C195.343948,83.144463 193.604599,81.474380 193.408798,77.968834 
	C193.261002,75.322937 193.037994,72.641144 193.828766,70.060608 
	C194.352753,68.350731 195.558762,67.213577 197.446747,67.144783 
	C199.113510,67.084045 200.632156,67.948975 200.952530,69.429764 
	C201.882462,73.727966 203.212341,78.184647 199.317932,82.218544 
z"/>
<path fill="#050505" opacity="1.000000" stroke="none" 
	d="
M179.606232,69.331009 
	C179.669495,71.922691 178.282562,72.866280 176.284454,73.079643 
	C174.960281,73.221039 173.577621,73.121490 172.728516,71.909973 
	C171.913162,70.746643 171.886627,69.393112 172.683075,68.212509 
	C173.525482,66.963753 174.926498,67.032059 176.246048,67.081360 
	C177.653198,67.133919 178.754028,67.744469 179.606232,69.331009 
z"/>
<path fill="#1B5D27" opacity="1.000000" stroke="none" 
	d="
M278.055328,204.168945 
	C274.148834,212.667694 273.456635,221.113541 275.343323,229.854675 
	C275.768951,231.826691 276.932678,234.351181 273.740448,235.221817 
	C271.001068,235.968948 270.134399,234.131378 269.158997,231.911697 
	C267.775513,228.763321 265.389862,228.740860 263.845245,231.906952 
	C262.735291,234.182098 261.560730,235.665924 258.983795,234.833771 
	C256.242676,233.948593 257.287323,231.665024 257.459656,229.763458 
	C257.864227,225.298935 258.576233,220.837158 258.611481,216.369904 
	C258.670990,208.823410 256.531128,201.891998 251.255753,196.260406 
	C249.270798,194.141418 248.723679,191.919357 250.161407,189.487946 
	C251.944778,186.471970 252.593887,182.095673 257.187805,181.907455 
	C263.329620,181.655807 269.501556,181.537125 275.634308,181.859985 
	C280.397125,182.110748 285.083801,192.924240 282.503784,197.105316 
	C281.108612,199.366226 279.650879,201.588547 278.055328,204.168945 
z"/>
<path fill="#1B5D27" opacity="1.000000" stroke="none" 
	d="
M243.637589,326.610077 
	C248.944244,323.387482 253.399872,319.659058 257.386139,315.412933 
	C259.593536,313.061646 261.230896,312.840149 263.360199,315.537537 
	C267.200317,320.402222 272.005890,324.239441 277.261658,327.493530 
	C280.641022,329.585846 280.519867,331.641968 277.496613,333.983765 
	C273.168152,337.336639 268.888092,340.753662 264.640808,344.208984 
	C262.082245,346.290497 259.650238,346.531433 257.062408,344.266663 
	C252.318741,340.115417 247.514572,336.033325 242.750565,331.905212 
	C240.487488,329.944214 240.935364,328.250153 243.637589,326.610077 
z"/>
<path fill="#1B5B26" opacity="1.000000" stroke="none" 
	d="
M231.383301,233.282532 
	C235.591202,223.512894 239.730774,214.112473 243.937241,204.742065 
	C244.452362,203.594574 244.865402,202.015427 246.494934,202.031479 
	C247.798813,202.044342 248.440262,203.272522 248.893616,204.317169 
	C253.210785,214.265152 251.305344,224.110825 248.301086,233.922287 
	C248.209671,234.220795 247.960419,234.492996 247.730774,234.723724 
	C245.194870,237.271393 233.981369,236.538681 231.383301,233.282532 
z"/>
<path fill="#1B5A26" opacity="1.000000" stroke="none" 
	d="
M296.394287,222.609650 
	C297.199982,224.487167 297.839905,226.023682 298.495880,227.553314 
	C301.399445,234.324005 301.212494,234.607407 293.602936,234.771973 
	C291.605865,234.815155 289.607330,234.848434 287.610291,234.821884 
	C285.734772,234.796951 284.379059,233.902985 283.950623,232.040741 
	C282.139801,224.169525 281.156342,216.276093 283.987427,208.419708 
	C284.541138,206.883057 285.094818,204.950012 286.957306,204.722076 
	C289.131256,204.455994 289.400452,206.669724 290.042816,208.079193 
	C292.182343,212.773682 294.182404,217.531754 296.394287,222.609650 
z"/>
<path fill="#1B5A26" opacity="1.000000" stroke="none" 
	d="
M269.210022,277.838867 
	C267.658569,278.089630 266.505859,278.313232 265.353790,278.309875 
	C260.087219,278.294556 256.285095,275.614532 255.664185,271.556213 
	C255.025085,267.379150 257.745392,263.755554 262.437042,262.534393 
	C267.537872,261.206757 273.025208,263.571808 274.592407,267.773438 
	C276.072235,271.740814 274.463165,274.948273 269.210022,277.838867 
z"/>
<path fill="#1B5B26" opacity="1.000000" stroke="none" 
	d="
M308.877808,258.735779 
	C302.132568,257.631409 296.554749,254.914673 291.885040,250.459259 
	C290.644073,249.275223 288.553558,248.136993 289.402924,246.049759 
	C290.150146,244.213684 292.277710,244.889999 293.850708,244.779404 
	C295.495667,244.663742 297.154755,244.731415 298.807434,244.745895 
	C306.242310,244.811050 310.727448,248.971680 311.411865,256.294678 
	C311.575592,258.046600 310.906128,258.762177 308.877808,258.735779 
z"/>
<path fill="#1B5A26" opacity="1.000000" stroke="none" 
	d="
M226.620514,257.727539 
	C224.325653,258.193207 222.029617,259.274170 220.627380,257.537933 
	C219.151306,255.710327 221.015427,253.797485 221.819046,252.080582 
	C224.842255,245.621628 235.490173,241.950439 241.572678,245.228775 
	C244.087921,246.584457 242.497269,248.070953 241.377991,249.141937 
	C237.260696,253.081543 232.603806,256.182526 226.620514,257.727539 
z"/>
<path fill="#1B5625" opacity="1.000000" stroke="none" 
	d="
M265.560608,292.412079 
	C265.967621,289.614380 264.766724,286.499451 267.176239,285.049927 
	C270.252899,283.199127 273.769196,282.005920 277.207947,280.867188 
	C278.537415,280.426941 278.749115,281.903381 278.371643,282.867920 
	C276.195160,288.429657 273.907684,293.977295 269.550446,298.252472 
	C267.591949,300.174072 265.912323,299.761841 265.540619,296.801178 
	C265.377014,295.498352 265.530640,294.155762 265.560608,292.412079 
z"/>
</svg>